<mxfile host="app.diagrams.net" agent="Mozilla/5.0 (Macintosh; Intel Mac OS X 10.15; rv:144.0) Gecko/20100101 Firefox/144.0" version="28.2.7">
  <diagram name="Seite-1" id="Mf4pJQINIsVvI6grORsi">
    <mxGraphModel dx="1426" dy="768" grid="1" gridSize="10" guides="1" tooltips="1" connect="1" arrows="1" fold="1" page="1" pageScale="1" pageWidth="827" pageHeight="1169" math="0" shadow="0">
      <root>
        <mxCell id="0" />
        <mxCell id="1" parent="0" />
        <mxCell id="8mdRNxYV0NPmIafyGJd7-55" value="Band" style="swimlane;fontStyle=1;align=center;verticalAlign=top;childLayout=stackLayout;horizontal=1;startSize=29.333333333333332;horizontalStack=0;resizeParent=1;resizeParentMax=0;resizeLast=0;collapsible=0;marginBottom=0;" vertex="1" parent="1">
          <mxGeometry x="20" y="20" width="361" height="356.3333333333333" as="geometry" />
        </mxCell>
        <mxCell id="8mdRNxYV0NPmIafyGJd7-56" value="-band: unsigned char" style="text;strokeColor=none;fillColor=none;align=left;verticalAlign=top;spacingLeft=4;spacingRight=4;overflow=hidden;rotatable=0;points=[[0,0.5],[1,0.5]];portConstraint=eastwest;" vertex="1" parent="8mdRNxYV0NPmIafyGJd7-55">
          <mxGeometry y="29.333333333333332" width="361" height="29" as="geometry" />
        </mxCell>
        <mxCell id="8mdRNxYV0NPmIafyGJd7-57" value="-bandSize: int" style="text;strokeColor=none;fillColor=none;align=left;verticalAlign=top;spacingLeft=4;spacingRight=4;overflow=hidden;rotatable=0;points=[[0,0.5],[1,0.5]];portConstraint=eastwest;" vertex="1" parent="8mdRNxYV0NPmIafyGJd7-55">
          <mxGeometry y="58.33333333333333" width="361" height="29" as="geometry" />
        </mxCell>
        <mxCell id="8mdRNxYV0NPmIafyGJd7-58" value="-bandIndex: int" style="text;strokeColor=none;fillColor=none;align=left;verticalAlign=top;spacingLeft=4;spacingRight=4;overflow=hidden;rotatable=0;points=[[0,0.5],[1,0.5]];portConstraint=eastwest;" vertex="1" parent="8mdRNxYV0NPmIafyGJd7-55">
          <mxGeometry y="87.33333333333333" width="361" height="29" as="geometry" />
        </mxCell>
        <mxCell id="8mdRNxYV0NPmIafyGJd7-59" style="line;strokeWidth=1;fillColor=none;align=left;verticalAlign=middle;spacingTop=-1;spacingLeft=3;spacingRight=3;rotatable=0;labelPosition=right;points=[];portConstraint=eastwest;strokeColor=inherit;" vertex="1" parent="8mdRNxYV0NPmIafyGJd7-55">
          <mxGeometry y="116.33333333333333" width="361" height="8" as="geometry" />
        </mxCell>
        <mxCell id="8mdRNxYV0NPmIafyGJd7-60" value="+Band(bandSize: int)" style="text;strokeColor=none;fillColor=none;align=left;verticalAlign=top;spacingLeft=4;spacingRight=4;overflow=hidden;rotatable=0;points=[[0,0.5],[1,0.5]];portConstraint=eastwest;" vertex="1" parent="8mdRNxYV0NPmIafyGJd7-55">
          <mxGeometry y="124.33333333333333" width="361" height="29" as="geometry" />
        </mxCell>
        <mxCell id="8mdRNxYV0NPmIafyGJd7-61" value="+~Band()" style="text;strokeColor=none;fillColor=none;align=left;verticalAlign=top;spacingLeft=4;spacingRight=4;overflow=hidden;rotatable=0;points=[[0,0.5],[1,0.5]];portConstraint=eastwest;" vertex="1" parent="8mdRNxYV0NPmIafyGJd7-55">
          <mxGeometry y="153.33333333333331" width="361" height="29" as="geometry" />
        </mxCell>
        <mxCell id="8mdRNxYV0NPmIafyGJd7-62" value="+increaseBandValue()" style="text;strokeColor=none;fillColor=none;align=left;verticalAlign=top;spacingLeft=4;spacingRight=4;overflow=hidden;rotatable=0;points=[[0,0.5],[1,0.5]];portConstraint=eastwest;" vertex="1" parent="8mdRNxYV0NPmIafyGJd7-55">
          <mxGeometry y="182.33333333333331" width="361" height="29" as="geometry" />
        </mxCell>
        <mxCell id="8mdRNxYV0NPmIafyGJd7-63" value="+decreaseBandValue()" style="text;strokeColor=none;fillColor=none;align=left;verticalAlign=top;spacingLeft=4;spacingRight=4;overflow=hidden;rotatable=0;points=[[0,0.5],[1,0.5]];portConstraint=eastwest;" vertex="1" parent="8mdRNxYV0NPmIafyGJd7-55">
          <mxGeometry y="211.33333333333331" width="361" height="29" as="geometry" />
        </mxCell>
        <mxCell id="8mdRNxYV0NPmIafyGJd7-64" value="+getCurrentBandValue() : string" style="text;strokeColor=none;fillColor=none;align=left;verticalAlign=top;spacingLeft=4;spacingRight=4;overflow=hidden;rotatable=0;points=[[0,0.5],[1,0.5]];portConstraint=eastwest;" vertex="1" parent="8mdRNxYV0NPmIafyGJd7-55">
          <mxGeometry y="240.33333333333331" width="361" height="29" as="geometry" />
        </mxCell>
        <mxCell id="8mdRNxYV0NPmIafyGJd7-65" value="+setCurrentBandValue(value: unsigned char)" style="text;strokeColor=none;fillColor=none;align=left;verticalAlign=top;spacingLeft=4;spacingRight=4;overflow=hidden;rotatable=0;points=[[0,0.5],[1,0.5]];portConstraint=eastwest;" vertex="1" parent="8mdRNxYV0NPmIafyGJd7-55">
          <mxGeometry y="269.3333333333333" width="361" height="29" as="geometry" />
        </mxCell>
        <mxCell id="8mdRNxYV0NPmIafyGJd7-66" value="+increaseIndex()" style="text;strokeColor=none;fillColor=none;align=left;verticalAlign=top;spacingLeft=4;spacingRight=4;overflow=hidden;rotatable=0;points=[[0,0.5],[1,0.5]];portConstraint=eastwest;" vertex="1" parent="8mdRNxYV0NPmIafyGJd7-55">
          <mxGeometry y="298.3333333333333" width="361" height="29" as="geometry" />
        </mxCell>
        <mxCell id="8mdRNxYV0NPmIafyGJd7-67" value="+decreaseIndex()" style="text;strokeColor=none;fillColor=none;align=left;verticalAlign=top;spacingLeft=4;spacingRight=4;overflow=hidden;rotatable=0;points=[[0,0.5],[1,0.5]];portConstraint=eastwest;" vertex="1" parent="8mdRNxYV0NPmIafyGJd7-55">
          <mxGeometry y="327.3333333333333" width="361" height="29" as="geometry" />
        </mxCell>
      </root>
    </mxGraphModel>
  </diagram>
</mxfile>
